<mxfile host="app.diagrams.net" modified="2024-03-06T09:49:33.822Z" agent="Mozilla/5.0 (Windows NT 10.0; Win64; x64; rv:123.0) Gecko/20100101 Firefox/123.0" etag="Gr3_KURJNKPy6BQ-b75i" version="24.0.2" type="github">
  <diagram id="C5RBs43oDa-KdzZeNtuy" name="Page-1">
    <mxGraphModel dx="4229" dy="1584" grid="1" gridSize="10" guides="1" tooltips="1" connect="1" arrows="1" fold="1" page="1" pageScale="1" pageWidth="827" pageHeight="1169" math="0" shadow="0">
      <root>
        <mxCell id="WIyWlLk6GJQsqaUBKTNV-0" />
        <mxCell id="WIyWlLk6GJQsqaUBKTNV-1" parent="WIyWlLk6GJQsqaUBKTNV-0" />
        <mxCell id="u52350nWQzFn1Am1lrv0-1" style="edgeStyle=orthogonalEdgeStyle;rounded=0;orthogonalLoop=1;jettySize=auto;html=1;" edge="1" parent="WIyWlLk6GJQsqaUBKTNV-1" target="u52350nWQzFn1Am1lrv0-2">
          <mxGeometry relative="1" as="geometry">
            <mxPoint x="292.5" y="270" as="targetPoint" />
            <mxPoint x="292.5" y="220" as="sourcePoint" />
          </mxGeometry>
        </mxCell>
        <mxCell id="u52350nWQzFn1Am1lrv0-0" value="Request a trip" style="rounded=1;whiteSpace=wrap;html=1;fontSize=12;glass=0;strokeWidth=1;shadow=0;" vertex="1" parent="WIyWlLk6GJQsqaUBKTNV-1">
          <mxGeometry x="232.5" y="180" width="120" height="40" as="geometry" />
        </mxCell>
        <mxCell id="u52350nWQzFn1Am1lrv0-5" style="edgeStyle=orthogonalEdgeStyle;rounded=0;orthogonalLoop=1;jettySize=auto;html=1;" edge="1" parent="WIyWlLk6GJQsqaUBKTNV-1" source="u52350nWQzFn1Am1lrv0-2" target="u52350nWQzFn1Am1lrv0-6">
          <mxGeometry relative="1" as="geometry">
            <mxPoint x="402.5" y="290" as="targetPoint" />
          </mxGeometry>
        </mxCell>
        <mxCell id="u52350nWQzFn1Am1lrv0-2" value="Fill form" style="rounded=1;whiteSpace=wrap;html=1;" vertex="1" parent="WIyWlLk6GJQsqaUBKTNV-1">
          <mxGeometry x="232.5" y="270" width="120" height="40" as="geometry" />
        </mxCell>
        <mxCell id="u52350nWQzFn1Am1lrv0-28" style="edgeStyle=orthogonalEdgeStyle;rounded=0;orthogonalLoop=1;jettySize=auto;html=1;entryX=0;entryY=0.5;entryDx=0;entryDy=0;exitX=1;exitY=0.5;exitDx=0;exitDy=0;" edge="1" parent="WIyWlLk6GJQsqaUBKTNV-1" source="u52350nWQzFn1Am1lrv0-2" target="u52350nWQzFn1Am1lrv0-7">
          <mxGeometry relative="1" as="geometry" />
        </mxCell>
        <mxCell id="u52350nWQzFn1Am1lrv0-38" style="edgeStyle=orthogonalEdgeStyle;rounded=0;orthogonalLoop=1;jettySize=auto;html=1;exitX=0.5;exitY=1;exitDx=0;exitDy=0;entryX=0.5;entryY=0;entryDx=0;entryDy=0;" edge="1" parent="WIyWlLk6GJQsqaUBKTNV-1" source="u52350nWQzFn1Am1lrv0-6" target="u52350nWQzFn1Am1lrv0-11">
          <mxGeometry relative="1" as="geometry" />
        </mxCell>
        <mxCell id="u52350nWQzFn1Am1lrv0-6" value="Generate a doc file with information accordingly to form filled" style="rounded=1;whiteSpace=wrap;html=1;" vertex="1" parent="WIyWlLk6GJQsqaUBKTNV-1">
          <mxGeometry x="187.5" y="358" width="210" height="60" as="geometry" />
        </mxCell>
        <mxCell id="u52350nWQzFn1Am1lrv0-7" value="Request Form for Biz trip" style="swimlane;whiteSpace=wrap;html=1;" vertex="1" parent="WIyWlLk6GJQsqaUBKTNV-1">
          <mxGeometry x="495" y="190" width="180" height="200" as="geometry" />
        </mxCell>
        <mxCell id="u52350nWQzFn1Am1lrv0-9" value="&lt;div align=&quot;left&quot;&gt;&lt;ul&gt;&lt;li&gt;Name&lt;/li&gt;&lt;li&gt;Designation&lt;/li&gt;&lt;li&gt;Department&lt;/li&gt;&lt;li&gt;ID&lt;/li&gt;&lt;li&gt;Destination&lt;/li&gt;&lt;li&gt;Period&lt;/li&gt;&lt;li&gt;Purpose&lt;br&gt;&lt;/li&gt;&lt;/ul&gt;&lt;/div&gt;" style="text;html=1;align=left;verticalAlign=middle;resizable=0;points=[];autosize=1;strokeColor=none;fillColor=none;" vertex="1" parent="u52350nWQzFn1Am1lrv0-7">
          <mxGeometry x="20" y="40" width="130" height="140" as="geometry" />
        </mxCell>
        <mxCell id="u52350nWQzFn1Am1lrv0-30" value="" style="edgeStyle=orthogonalEdgeStyle;rounded=0;orthogonalLoop=1;jettySize=auto;html=1;exitX=1;exitY=0.5;exitDx=0;exitDy=0;" edge="1" parent="WIyWlLk6GJQsqaUBKTNV-1" source="u52350nWQzFn1Am1lrv0-11" target="u52350nWQzFn1Am1lrv0-14">
          <mxGeometry relative="1" as="geometry" />
        </mxCell>
        <mxCell id="u52350nWQzFn1Am1lrv0-11" value="Generate document" style="rounded=1;whiteSpace=wrap;html=1;" vertex="1" parent="WIyWlLk6GJQsqaUBKTNV-1">
          <mxGeometry x="232.5" y="480" width="120" height="50" as="geometry" />
        </mxCell>
        <mxCell id="u52350nWQzFn1Am1lrv0-22" style="edgeStyle=orthogonalEdgeStyle;rounded=0;orthogonalLoop=1;jettySize=auto;html=1;entryX=1;entryY=0.5;entryDx=0;entryDy=0;exitX=1;exitY=0.5;exitDx=0;exitDy=0;" edge="1" parent="WIyWlLk6GJQsqaUBKTNV-1" source="u52350nWQzFn1Am1lrv0-14" target="u52350nWQzFn1Am1lrv0-14">
          <mxGeometry relative="1" as="geometry">
            <mxPoint x="637.5" y="652.5" as="sourcePoint" />
          </mxGeometry>
        </mxCell>
        <mxCell id="u52350nWQzFn1Am1lrv0-27" value="" style="edgeStyle=orthogonalEdgeStyle;rounded=0;orthogonalLoop=1;jettySize=auto;html=1;exitX=0;exitY=0.5;exitDx=0;exitDy=0;" edge="1" parent="WIyWlLk6GJQsqaUBKTNV-1" source="u52350nWQzFn1Am1lrv0-14" target="u52350nWQzFn1Am1lrv0-19">
          <mxGeometry relative="1" as="geometry">
            <mxPoint x="637.5" y="522.5" as="sourcePoint" />
          </mxGeometry>
        </mxCell>
        <mxCell id="u52350nWQzFn1Am1lrv0-31" style="edgeStyle=orthogonalEdgeStyle;rounded=0;orthogonalLoop=1;jettySize=auto;html=1;entryX=0;entryY=0.5;entryDx=0;entryDy=0;" edge="1" parent="WIyWlLk6GJQsqaUBKTNV-1" source="u52350nWQzFn1Am1lrv0-14" target="u52350nWQzFn1Am1lrv0-21">
          <mxGeometry relative="1" as="geometry" />
        </mxCell>
        <mxCell id="u52350nWQzFn1Am1lrv0-14" value="Requestor belongs to Commercial Dept?" style="rhombus;whiteSpace=wrap;html=1;rounded=1;" vertex="1" parent="WIyWlLk6GJQsqaUBKTNV-1">
          <mxGeometry x="337.5" y="642.5" width="160" height="130" as="geometry" />
        </mxCell>
        <mxCell id="u52350nWQzFn1Am1lrv0-32" style="edgeStyle=orthogonalEdgeStyle;rounded=0;orthogonalLoop=1;jettySize=auto;html=1;exitX=0.5;exitY=1;exitDx=0;exitDy=0;entryX=0.5;entryY=0;entryDx=0;entryDy=0;" edge="1" parent="WIyWlLk6GJQsqaUBKTNV-1" source="u52350nWQzFn1Am1lrv0-19" target="u52350nWQzFn1Am1lrv0-34">
          <mxGeometry relative="1" as="geometry">
            <mxPoint x="417.5" y="900" as="targetPoint" />
            <Array as="points">
              <mxPoint x="210.5" y="860" />
              <mxPoint x="418.5" y="860" />
            </Array>
          </mxGeometry>
        </mxCell>
        <mxCell id="u52350nWQzFn1Am1lrv0-19" value="Email to Yoan for signature" style="rounded=1;whiteSpace=wrap;html=1;" vertex="1" parent="WIyWlLk6GJQsqaUBKTNV-1">
          <mxGeometry x="150" y="677.5" width="120" height="60" as="geometry" />
        </mxCell>
        <mxCell id="u52350nWQzFn1Am1lrv0-20" value="yes" style="text;html=1;align=center;verticalAlign=middle;resizable=0;points=[];autosize=1;strokeColor=none;fillColor=none;" vertex="1" parent="WIyWlLk6GJQsqaUBKTNV-1">
          <mxGeometry x="287.5" y="677.5" width="40" height="30" as="geometry" />
        </mxCell>
        <mxCell id="u52350nWQzFn1Am1lrv0-33" style="edgeStyle=orthogonalEdgeStyle;rounded=0;orthogonalLoop=1;jettySize=auto;html=1;exitX=0.5;exitY=1;exitDx=0;exitDy=0;" edge="1" parent="WIyWlLk6GJQsqaUBKTNV-1" source="u52350nWQzFn1Am1lrv0-21" target="u52350nWQzFn1Am1lrv0-34">
          <mxGeometry relative="1" as="geometry">
            <mxPoint x="417.5" y="900" as="targetPoint" />
            <Array as="points">
              <mxPoint x="642.5" y="860" />
              <mxPoint x="418.5" y="860" />
            </Array>
          </mxGeometry>
        </mxCell>
        <mxCell id="u52350nWQzFn1Am1lrv0-21" value="Email to JP/Sebastien for signature" style="rounded=1;whiteSpace=wrap;html=1;" vertex="1" parent="WIyWlLk6GJQsqaUBKTNV-1">
          <mxGeometry x="577.5" y="677.5" width="130" height="62.5" as="geometry" />
        </mxCell>
        <mxCell id="u52350nWQzFn1Am1lrv0-23" value="no" style="text;html=1;align=center;verticalAlign=middle;resizable=0;points=[];autosize=1;strokeColor=none;fillColor=none;" vertex="1" parent="WIyWlLk6GJQsqaUBKTNV-1">
          <mxGeometry x="517.5" y="677.5" width="40" height="30" as="geometry" />
        </mxCell>
        <mxCell id="u52350nWQzFn1Am1lrv0-34" value="Send email and form to Admin Dept" style="rounded=1;whiteSpace=wrap;html=1;" vertex="1" parent="WIyWlLk6GJQsqaUBKTNV-1">
          <mxGeometry x="302.5" y="910" width="230" height="60" as="geometry" />
        </mxCell>
        <mxCell id="u52350nWQzFn1Am1lrv0-36" value="Confirm with Signature" style="text;html=1;align=center;verticalAlign=middle;resizable=0;points=[];autosize=1;strokeColor=none;fillColor=none;" vertex="1" parent="WIyWlLk6GJQsqaUBKTNV-1">
          <mxGeometry x="347.5" y="830" width="140" height="30" as="geometry" />
        </mxCell>
      </root>
    </mxGraphModel>
  </diagram>
</mxfile>
